<?xml version="1.0" encoding="utf-8"?><svg version="1.1" id="Layer_1" xmlns="http://www.w3.org/2000/svg" xmlns:xlink="http://www.w3.org/1999/xlink" x="0px" y="0px" viewBox="0 0 117.92 122.88" style="enable-background:new 0 0 117.92 122.88" xml:space="preserve"><style type="text/css">.st0{fill:#89BF3F;} .st1{fill:#4CA71E;}</style><g><path class="st0" d="M13.54,97.85c-5.05,6.71-9.37,12.31-11.71,18.72c-2.29,6.25-3.22,9.12,1.97,2.62 c4.84-6.04,9.37-11.92,15.97-17.47c0.46,0.12,0.97,0.21,1.48,0.32C81.12,113.94,124.7,87.02,117.04,0 C70.96,15.97,5.68,9.47,12.43,91.26C12.69,94.29,12.92,96.37,13.54,97.85L13.54,97.85L13.54,97.85z M27.72,86.1 c15.65-33.71,55.85-45.26,75.79-68.3C81.91,59.92,64.23,61.99,27.72,86.1L27.72,86.1z"/><path class="st1" d="M27.72,86.1c15.65-33.71,55.85-45.26,75.79-68.3C81.91,59.92,64.23,61.99,27.72,86.1L27.72,86.1z"/></g></svg>