<?xml version="1.0" encoding="utf-8"?><svg version="1.1" id="Layer_1" xmlns="http://www.w3.org/2000/svg" xmlns:xlink="http://www.w3.org/1999/xlink" x="0px" y="0px" viewBox="0 0 115.64 122.88" style="enable-background:new 0 0 115.64 122.88" xml:space="preserve"><style type="text/css">.st0{fill-rule:evenodd;clip-rule:evenodd;}</style><g><path class="st0" d="M19.6,17.14c1.63,0,2.94,1.32,2.94,2.94c0,1.63-1.32,2.95-2.94,2.95c-1.63,0-2.94-1.32-2.94-2.95 C16.65,18.46,17.97,17.14,19.6,17.14L19.6,17.14z M59.26,109.4h3.03l-1.02-2.73c-0.28-0.63,0-1.37,0.63-1.65 c1.25-0.57,2.02-1.56,2.79-2.56c0.07-0.08,0.12-0.16,0.32-0.4c0.1-0.14,0.22-0.26,0.38-0.36c6.24-3.81,11.08-9.23,14.52-16.91 c3.49-7.78,5.56-17.9,6.24-31.01c0.02-0.45,0.27-0.87,0.7-1.08c0.62-0.31,1.37-0.05,1.68,0.57c1.63,3.29,2.7,7.57,3.23,12.83 c0.33,3.26,0.44,6.9,0.35,10.93c1.44-4.18,2.48-8.44,3.12-12.77c1-6.74,1.02-13.67,0-20.8c-0.08-0.48,0.13-0.99,0.57-1.26 c0.59-0.37,1.36-0.19,1.72,0.4c1.81,2.91,3.11,6.66,3.98,11.13c0.59,3.02,0.98,6.38,1.21,10.05c1.26-2.98,2.26-5.98,2.92-9.03 c1-4.59,1.24-9.26,0.47-14.05l0,0l0,0c-0.1-0.64,0.3-1.26,0.94-1.41c1.84-0.45,3.41,1.18,4.74,4.48c0.45,1.11,0.9,2.44,1.34,3.97 l0-0.2c0.05-2.72-0.05-5.49-0.34-8.31c-0.65-4.7-2.12-8.51-4.22-11.4c-1.82-2.51-4.1-4.31-6.7-5.37c-2.62-1.07-5.57-1.41-8.73-0.97 c-4.07,0.56-8.46,2.4-12.87,5.59c-4.56,4.03-8.24,8.14-11,12.33c-2.74,4.15-4.57,8.37-5.47,12.66c-0.07,0.41-0.34,0.77-0.75,0.94 c-2.93,1.23-6.6,1.57-11.18,0.82c-4.39-0.72-9.64-2.45-15.92-5.39c-1.64-0.09-2.75-0.78-3.47-1.93c-0.66-1.07-0.9-2.49-0.88-4.14h0 l0.08-9.69c0-0.04,0-0.09,0-0.13c0.23-4.02,0.02-7.48-0.72-10.24c-0.68-2.57-1.82-4.52-3.49-5.73c-0.22-0.13-0.4-0.34-0.51-0.59 c-0.27-0.64,0.04-1.37,0.68-1.64c1.46-0.61,3.04-1.09,4.7-1.47c0.54-0.13,1.1-0.24,1.66-0.35c-0.2-0.11-0.41-0.22-0.61-0.33 c-1.22-0.65-2.47-1.25-3.76-1.75l0,0c-0.15-0.06-0.29-0.15-0.42-0.27c-0.49-0.48-0.51-1.27-0.02-1.77l1.1-1.12 c-0.93,0.08-1.84,0.17-2.73,0.29c-1.87,0.24-3.64,0.56-5.25,1.02l0,0c-0.22,0.06-0.47,0.06-0.71-0.01c-0.66-0.2-1.03-0.9-0.83-1.56 l0.83-2.69c-0.3,0.2-0.59,0.4-0.89,0.59c-5.15,3.45-10.29,6.89-9.28,10.65l0,0c0.17,0.63-0.17,1.29-0.8,1.5l-5.88,2.06l5.35,2.2 c0.16,0.06,0.32,0.16,0.45,0.29c0.49,0.49,0.49,1.28,0.01,1.77c-1.64,1.65-2.83,3.18-3.52,4.57c-0.61,1.24-0.81,2.34-0.56,3.29 c0.16,0.6,0.3,1.02,0.41,1.12c0.1,0.09-0.1-0.17,0.05-0.26l2.88-1.7v0c0.4-0.24,0.93-0.24,1.34,0.04c0.57,0.39,0.72,1.17,0.33,1.74 c-0.88,1.28-1.65,2.61-2.33,3.98c-4.61,9.27-4.89,20.39-1.92,30.65c2.97,10.27,9.2,19.64,17.61,25.38 c1.34,0.91,2.73,1.74,4.17,2.45c0.73,0.36,1.48,0.73,2.24,1.09c0.83,0.39,1.58,0.74,2.27,1.06l0,0c0.26,0.12,0.48,0.33,0.61,0.61 c0.47,1.01,0.99,1.94,1.57,2.77c0.55,0.79,1.14,1.46,1.79,1.98l0,0c0.35,0.28,0.54,0.75,0.44,1.22l-1.21,5.99h2.83l1.54-5.4l0,0 c0.15-0.52,0.62-0.9,1.18-0.91c0.37-0.01,0.72-0.05,1.06-0.12c0.34-0.07,0.67-0.17,1.01-0.3c0.51-0.19,0.81-0.36,1.02-0.49 c0.89-0.51,1.06-0.61,3.02-0.13l1.43,0.35l0.04,0.01l0.59,0.14c0.75,0.17,1.08,0.24,1.45,0.46c0.33,0.19,0.5,0.38,0.8,0.72 c0.15,0.16,0.35,0.39,0.69,0.73c0.25,0.25,0.48,0.46,0.71,0.63c0.22,0.17,0.46,0.33,0.72,0.47c0.85,0.47,1.25,0.53,1.52,0.57 c1.17,0.17,1.31,0.19,2.8,3.06L59.26,109.4L59.26,109.4z M7.53,22.99l-6.75-2.78c-0.64-0.26-0.94-0.99-0.68-1.63 c0.14-0.34,0.42-0.59,0.74-0.7l0,0l7.98-2.8c-0.43-4.9,5.04-8.56,10.51-12.23c1.32-0.88,2.63-1.76,3.8-2.62 c0.56-0.41,1.34-0.28,1.74,0.27c0.24,0.33,0.3,0.74,0.18,1.1l0,0l-1.25,4.05c1.1-0.23,2.25-0.41,3.44-0.56 c1.99-0.25,4.05-0.42,6.16-0.53c0.69-0.04,1.28,0.49,1.32,1.18c0.02,0.37-0.13,0.72-0.37,0.96l-2.09,2.14 c0.79,0.36,1.55,0.74,2.3,1.14c1.24,0.66,2.49,1.4,3.75,2.17c0.59,0.36,0.77,1.13,0.41,1.72c-0.21,0.34-0.55,0.54-0.92,0.58 c-1.69,0.22-3.33,0.49-4.9,0.86c-0.83,0.19-1.63,0.41-2.4,0.65c1.32,1.48,2.27,3.39,2.88,5.7c0.8,3.02,1.04,6.73,0.8,11.01l0,0.01 L34.1,42.4l0,0.01h0c-0.02,1.19,0.12,2.16,0.5,2.78c0.3,0.48,0.82,0.75,1.65,0.76c0.19,0,0.38,0.05,0.54,0.13 c6.15,2.89,11.26,4.58,15.47,5.28c3.77,0.62,6.8,0.43,9.22-0.43c1.01-4.39,2.91-8.69,5.69-12.9c2.89-4.38,6.74-8.67,11.5-12.88 c0.03-0.03,0.06-0.05,0.09-0.08l0,0c4.76-3.45,9.55-5.45,14.03-6.06c3.58-0.49,6.98-0.1,10,1.14c3.04,1.24,5.7,3.33,7.79,6.21 c2.33,3.21,3.97,7.42,4.67,12.56l0,0.04h0c0.3,2.91,0.4,5.78,0.35,8.62c-0.05,2.85-0.26,5.63-0.58,8.36 c-0.08,0.69-0.7,1.18-1.39,1.1c-0.57-0.07-1.01-0.51-1.1-1.05c-1.02-4.84-2.05-8.71-3.1-11.29c-0.18-0.45-0.36-0.85-0.52-1.21 c0.3,4.01-0.03,7.93-0.87,11.78c-1.05,4.84-2.91,9.58-5.31,14.25c-0.32,0.61-1.07,0.86-1.68,0.54c-0.44-0.23-0.69-0.69-0.68-1.16 c-0.1-5.52-0.54-10.46-1.37-14.71c-0.18-0.93-0.38-1.82-0.6-2.68c0.15,4.44-0.11,8.81-0.74,13.1c-1.03,6.98-3.08,13.77-6.1,20.38 c-0.29,0.63-1.03,0.9-1.66,0.62c-0.49-0.22-0.76-0.72-0.73-1.23l0,0c0.53-7,0.54-13.01,0.04-18.04c-0.24-2.35-0.58-4.49-1.05-6.41 c-0.97,10.57-2.98,19.05-6.03,25.87c-3.63,8.1-8.72,13.84-15.31,17.91l-0.21,0.27c-0.76,0.98-1.53,1.97-2.71,2.74l3.59,9.63 l1.58,0.56c1.47,0.52,2.46,1.32,2.93,2.13c0.29,0.49,0.4,1.01,0.35,1.51c-0.06,0.55-0.31,1.04-0.76,1.44 c-0.58,0.52-1.52,0.85-2.79,0.85H49.15c-1.44,0.15-2.49-0.45-3.06-1.29c-0.28-0.41-0.43-0.88-0.46-1.36 c-0.03-0.49,0.08-0.98,0.34-1.43c0.49-0.85,1.49-1.51,3.04-1.5l10.89-1.21l-2.97-5.7c-0.9-1.73-0.91-1.73-0.94-1.74 c-0.44-0.07-1.11-0.16-2.36-0.85c-0.34-0.19-0.68-0.42-1.04-0.69c-0.34-0.26-0.67-0.55-0.97-0.85c-0.35-0.35-0.59-0.62-0.77-0.82 c-0.13-0.14-0.19-0.22-0.2-0.22c-0.04-0.03-0.26-0.07-0.74-0.18l-0.61-0.14c-0.02-0.01-0.05-0.01-0.07-0.02l-1.44-0.35 c-0.98-0.24-1.01-0.22-1.18-0.13c-0.28,0.16-0.66,0.38-1.38,0.65c-0.44,0.17-0.91,0.3-1.4,0.4c-0.19,0.04-0.37,0.07-0.57,0.09 l-3.23,11.3l1.67,0.62c0.03,0.01,0.05,0.02,0.07,0.03c0.81,0.35,1.33,0.95,1.58,1.63c0.16,0.46,0.19,0.97,0.09,1.45l0,0 c-0.1,0.47-0.34,0.92-0.69,1.3c-0.55,0.58-1.39,0.99-2.5,1h-0.01v0.01H20.09c-1.44,0-2.41-0.75-2.85-1.71 c-0.17-0.37-0.26-0.77-0.26-1.19c0-0.41,0.08-0.82,0.26-1.19c0.43-0.92,1.37-1.64,2.81-1.65l12.79-1.02l2.51-12.47 c-0.62-0.58-1.18-1.25-1.69-1.99c-0.57-0.81-1.09-1.73-1.57-2.73c-0.68-0.31-1.31-0.61-1.88-0.88c-0.76-0.36-1.52-0.73-2.28-1.11 c-1.55-0.77-3.04-1.65-4.47-2.63c-8.89-6.07-15.47-15.95-18.6-26.76c-3.13-10.82-2.81-22.6,2.08-32.45 c0.05-0.11,0.11-0.21,0.16-0.32c-0.72,0.16-1.31-0.03-1.84-0.5c-0.57-0.51-0.89-1.31-1.17-2.34c-0.43-1.57-0.17-3.26,0.72-5.06 C5.41,25.64,6.33,24.35,7.53,22.99L7.53,22.99z"/></g></svg>