<?xml version="1.0" encoding="utf-8"?><svg version="1.1" id="Layer_1" xmlns="http://www.w3.org/2000/svg" xmlns:xlink="http://www.w3.org/1999/xlink" x="0px" y="0px" viewBox="0 0 114.93 122.88" style="enable-background:new 0 0 114.93 122.88" xml:space="preserve"><style type="text/css">.st0{fill-rule:evenodd;clip-rule:evenodd;}</style><g><path class="st0" d="M38.61,68.73c8.42,2.86,27.89,2.48,37.71,0c3.47,10.59,4.51,20.74,3.2,31.85 c-3.56,30.26-39.89,28.36-44.09,2.57C33.53,91.42,34.42,80.5,38.61,68.73L38.61,68.73z M56.92,0.01 c39.58-0.65,57.65,23.65,58.02,41.61C115.56,73,2.64,74.01,0.07,41.62C-1.34,23.71,17.34,0.66,56.92,0.01L56.92,0.01z M37.29,8.35 c5.08-1.47,9.66-0.67,10.22,1.8c0.56,2.46-3.1,5.65-8.19,7.12c-5.08,1.47-9.66,0.67-10.22-1.8C28.55,13.01,32.21,9.82,37.29,8.35 L37.29,8.35z M83.3,56.48c4.55-0.8,7.78-4.19,7.23-7.56c-0.55-3.38-4.69-5.47-9.23-4.66c-4.55,0.8-7.78,4.19-7.23,7.56 C74.62,55.19,78.76,57.28,83.3,56.48L83.3,56.48z M33.86,44.25c4.55,0.8,7.78,4.19,7.23,7.56c-0.55,3.38-4.69,5.47-9.23,4.66 c-4.55-0.8-7.78-4.19-7.23-7.56C25.18,45.54,29.31,43.45,33.86,44.25L33.86,44.25z M75.33,17.04c5.08,1.47,9.66,0.67,10.22-1.8 c0.56-2.46-3.1-5.65-8.19-7.12c-5.08-1.47-9.66-0.67-10.22,1.8C66.59,12.38,70.25,15.56,75.33,17.04L75.33,17.04z M57.47,24.31 c6.05,0,10.96,3.42,10.96,7.63c0,4.22-4.91,7.63-10.96,7.63c-6.05,0-10.96-3.42-10.96-7.63C46.5,27.73,51.41,24.31,57.47,24.31 L57.47,24.31z M105.45,33.83c-2.39-3.56-5.65-5.45-7.28-4.22c-1.63,1.24-1.02,5.13,1.36,8.69c2.39,3.56,5.65,5.45,7.28,4.22 C108.45,41.29,107.84,37.39,105.45,33.83L105.45,33.83z M16.23,39.4c-2.88,4.29-6.8,6.57-8.77,5.08C5.49,42.99,6.23,38.3,9.1,34.01 c2.88-4.29,6.8-6.57,8.77-5.08C19.84,30.42,19.1,35.1,16.23,39.4L16.23,39.4z"/></g></svg>