<?xml version="1.0" encoding="utf-8"?><svg version="1.1" id="Layer_1" xmlns="http://www.w3.org/2000/svg" xmlns:xlink="http://www.w3.org/1999/xlink" x="0px" y="0px" viewBox="0 0 105.09 122.88" style="enable-background:new 0 0 105.09 122.88" xml:space="preserve"><style type="text/css">.st0{fill-rule:evenodd;clip-rule:evenodd;}</style><g><path class="st0" d="M16.01,0h13.23c2.87,0,5.21,2.35,5.21,5.21c0,2.11-1.27,3.94-3.09,4.76v22.56 c7.96,6.4,13.43,13.51,13.43,22.16c0.97,2.98,0.09,57.53,0.09,66.34c0,0.99-0.81,1.79-1.8,1.79l-41.29,0 c-0.99,0-1.79-0.81-1.79-1.79l0.01-66.15C-0.07,45.91,5.72,38.6,14.1,32.01V10.06c-1.93-0.77-3.3-2.65-3.3-4.85 C10.8,2.35,13.14,0,16.01,0L16.01,0L16.01,0z M97.94,49.58c14.55,16.23,5.63,39.76-15.39,48.03v16.99h10.88 c1.15,0,2.09,0.94,2.09,2.09v4.1c0,1.15-0.94,2.09-2.09,2.09l-31.46,0c-1.15,0-2.09-0.94-2.09-2.09v-4.1 c0-1.15,0.94-2.09,2.09-2.09l11.88,0V97.63C52.78,89.4,43.81,65.83,58.38,49.58L97.94,49.58L97.94,49.58z M92.21,57.84 C101.74,68.47,93,85.45,78.24,89.5l-0.08-0.01l-0.08,0.01c-14.76-4.05-23.5-21.03-13.98-31.66H92.21L92.21,57.84z M13.7,62.98h26.9 v29.19H13.7V62.98L13.7,62.98z"/></g></svg>