<svg height="682pt" viewBox="-37 -21 682 682.66534" width="682pt" xmlns="http://www.w3.org/2000/svg"><path d="m600.90625 387.078125-25.347656-25.34375c-13.398438-13.398437-20.773438-31.210937-20.773438-50.15625 0-49.757813-21.925781-96.5625-60.148437-128.414063-14.128907-11.777343-29.765625-21.359374-46.589844-28.585937l13.179687-21.660156c2.355469-3.875 2.441407-8.730469.21875-12.683594-2.226562-3.960937-6.410156-6.40625-10.953124-6.40625h-63.789063l54.175781-95.042969c2.214844-3.886718 2.195313-8.664062-.054687-12.53125-2.25-3.871094-6.386719-6.253906-10.863281-6.253906h-90.839844c-4.859375 0-9.277344 2.796875-11.359375 7.1875l-42.566407 89.882812c-15.128906-4.105468-30.832031-6.234374-46.722656-6.234374h-4.289062c-44.355469 0-87.554688 15.636718-121.625 44.035156-38.226563 31.851562-60.144532 78.660156-60.144532 128.414062 0 18.945313-7.382812 36.757813-20.777343 50.15625l-25.347657 25.347656c-6.882812 6.882813-8.929687 17.148438-5.199218 26.148438 3.726562 8.992188 12.425781 14.808594 22.164062 14.808594h13.679688v84.5c0 14.097656 5.488281 27.351562 15.460937 37.316406 9.964844 9.964844 23.214844 15.453125 37.308594 15.453125h12.363281c11.210938 0 20.324219 9.121094 20.324219 20.328125v41.804688c0 6.9375 5.625 12.5625 12.566406 12.5625h52.390625c6.9375 0 12.5625-5.625 12.5625-12.5625 0-6.941407-5.625-12.566407-12.5625-12.566407h-39.828125v-29.238281c0-25.066406-20.390625-45.453125-45.453125-45.453125h-12.363281c-7.382813 0-14.324219-2.878906-19.542969-8.097656-5.222656-5.21875-8.09375-12.164063-8.09375-19.546875v-97.0625c0-6.941406-5.625-12.566406-12.570312-12.566406h-23.5l23.410156-23.40625c18.136719-18.144532 28.132812-42.265626 28.132812-67.925782 0-42.273437 18.621094-82.046875 51.101563-109.109375 29.570313-24.640625 67.050781-38.210937 105.542969-38.210937h4.289062c12.128906 0 24.125 1.441406 35.765625 4.238281l-27.96875 59.058594c-1.386719 2.925781-1.574219 6.234375-.597656 9.242187-36.691406 38.097656-60.453125 91.171875-60.453125 137.394532 0 30.703124 7.574219 61.277343 21.90625 88.425781l40.574219 76.863281c13.273437 25.140625 20.285156 53.449219 20.285156 81.878906v54.367188c0 6.941406 5.625 12.566406 12.5625 12.566406s12.5625-5.625 12.5625-12.566406v-54.367188c0-32.5-8.015625-64.871094-23.191406-93.609375l-40.574219-76.859375c-12.429688-23.550781-19.003906-50.074218-19.003906-76.699218 0-43.703126 24.941406-94.855469 62.429687-128.695313h48.25l-9.53125 136.171875c-.398437 5.761719 3.175781 11.054688 8.667969 12.832031 1.273438.410157 2.578125.609375 3.867188.609375 4.253906 0 8.328124-2.167968 10.671874-5.933594l49.453126-79.550781c3.664062-5.894531 1.855468-13.636719-4.035157-17.300781s-13.640625-1.859375-17.300781 4.035156l-22.71875 36.542969 6.9375-99.097656c.242188-3.476563-.96875-6.894531-3.34375-9.441407-2.378906-2.550781-5.703125-3.996093-9.191406-3.996093h-57.019532l69.59375-146.949219h61.269532l-54.175782 95.039062c-2.214843 3.894532-2.195312 8.667969.054688 12.535157 2.25 3.871093 6.386719 6.25 10.863281 6.25h63.058594l-16.988281 27.925781c-3.609375 5.925781-1.722656 13.65625 4.203125 17.265625 5.929687 3.609375 13.65625 1.722656 17.261719-4.203125l2.210937-3.632812c15.855469 6.40625 30.546875 15.179687 43.726563 26.160156 32.476562 27.066406 51.101562 66.835937 51.101562 109.113281 0 25.65625 9.992188 49.777344 28.136719 67.917969l23.40625 23.410156h-23.503907c-6.9375 0-12.5625 5.625-12.5625 12.5625v97.070312c0 7.382813-2.878906 14.324219-8.097656 19.542969-5.21875 5.222657-12.15625 8.097657-19.546875 8.097657h-12.363281c-25.0625 0-45.453125 20.390624-45.453125 45.453124v41.800782c0 6.941406 5.625 12.566406 12.5625 12.566406 6.941406 0 12.566406-5.625 12.566406-12.566406v-41.800782c0-11.207031 9.121094-20.328124 20.324219-20.328124h12.363281c14.097657 0 27.351563-5.488282 37.316407-15.453126 9.964843-9.964843 15.457031-23.21875 15.457031-37.3125v-84.507812h13.683593c9.734376 0 18.4375-5.808594 22.160157-14.808594 3.726562-8.996094 1.6875-19.257812-5.199219-26.144531zm0 0"/><path d="m244.253906 569.261719-.332031-.253907c-5.527344-4.195312-13.410156-3.109374-17.605469 2.417969-4.191406 5.527344-3.109375 13.40625 2.417969 17.601563l.328125.25c2.269531 1.722656 4.941406 2.558594 7.585938 2.558594 3.796874 0 7.546874-1.714844 10.019531-4.972657 4.191406-5.527343 3.113281-13.40625-2.414063-17.601562zm0 0"/><path d="m406.234375 203.167969-.332031-.253907c-5.527344-4.195312-13.402344-3.109374-17.601563 2.417969-4.191406 5.527344-3.109375 13.40625 2.417969 17.601563l.324219.25c2.277343 1.722656 4.941406 2.554687 7.589843 2.554687 3.792969 0 7.542969-1.714843 10.019532-4.96875 4.195312-5.527343 3.109375-13.40625-2.417969-17.601562zm0 0"/></svg>