<svg id="Capa_1" enable-background="new 0 0 512.003 512.003" height="512" viewBox="0 0 512.003 512.003" width="512" xmlns="http://www.w3.org/2000/svg"><g id="XMLID_2797_"><g id="XMLID_170_"><path id="XMLID_1114_" d="m476.88 309.269-32.46-105.688c-.387-53.632-21.292-104.147-58.962-142.396-37.984-38.565-88.683-60.284-142.757-61.157-38.444-.631-76.05 9.368-108.741 28.886-4.742 2.831-6.291 8.97-3.459 13.712s8.971 6.291 13.712 3.459c29.495-17.61 63.455-26.622 98.165-26.061 100.381 1.621 182.047 84.645 182.047 185.074 0 .995.148 1.985.441 2.936l32.871 107.028h-44.855c-5.523 0-10 4.477-10 10v55.217c0 26.313-21.407 47.72-47.72 47.72h-76.375c-23.776 0-46.128-9.259-62.94-26.071-3.905-3.904-10.237-3.904-14.143 0-3.905 3.905-3.905 10.237 0 14.142 19.897 19.897 46.131 31.153 74.149 31.888l-14.692 51.287c-1.521 5.31 1.55 10.846 6.859 12.367.92.264 1.847.389 2.759.389 4.349 0 8.351-2.86 9.608-7.249l16.258-56.754h58.516c37.341 0 67.72-30.379 67.72-67.72v-45.217h34.938c6.392 0 12.237-2.948 16.036-8.089 3.8-5.139 4.902-11.592 3.025-17.703z"/><path id="XMLID_1115_" d="m54.255 201.875c.587-34.547 10.642-68.02 29.076-96.799 2.979-4.65 1.624-10.835-3.026-13.814s-10.835-1.624-13.814 3.026c-20.437 31.904-31.583 68.989-32.232 107.247-.66 38.791 9.422 82.081 27.661 118.771 17.534 35.274 22.221 75.311 13.197 112.735l-16.063 66.615c-1.295 5.369 2.008 10.771 7.377 12.065.788.19 1.576.281 2.353.281 4.513 0 8.608-3.077 9.713-7.658l16.063-66.615c10.124-41.987 4.893-86.85-14.73-126.326-16.861-33.914-26.182-73.836-25.575-109.528z"/><path id="XMLID_1116_" d="m96.469 57.625c-4 3.809-4.154 10.139-.345 14.138l.01.01c1.964 2.063 4.597 3.101 7.235 3.101 2.478 0 4.96-.917 6.897-2.761 4-3.809 4.149-10.144.34-14.143-3.808-4-10.138-4.155-14.137-.345z"/><path id="XMLID_1123_" d="m206.881 346.57 85.354-85.393c2.859-2.86 3.714-7.161 2.166-10.897s-5.194-6.172-9.238-6.172h-10.54l21.545-21.565h22.046c.277.004.553.006.829.006 6.013 0 11.942-1.03 17.637-3.064 27.242-9.732 41.488-39.813 31.756-67.056-4.629-12.957-13.984-23.421-26.342-29.465-9.41-4.602-19.772-6.261-29.948-4.895-11.829-26.368-37.896-43.519-67.459-43.519-29.131 0-55.299 17.057-67.253 43.132-12.897.651-25.134 6.026-34.409 15.3-20.456 20.456-20.456 53.74 0 74.195 9.083 9.082 21.075 14.474 33.875 15.255.488.073.989.111 1.498.111h30.368l-28.184 43.886c-1.977 3.077-2.115 6.988-.362 10.198 1.753 3.209 5.119 5.206 8.776 5.206h14.09l-13.013 55.38c-1.022 4.351.966 8.851 4.871 11.025 1.526.85 3.199 1.263 4.861 1.263 2.591 0 5.152-1.005 7.076-2.931zm-28.079-144.067c-8.174-.33-15.857-3.692-21.633-9.469-12.658-12.657-12.658-33.253 0-45.91 6.865-6.866 16.355-10.281 26.036-9.362 4.606.433 8.904-2.341 10.402-6.715 7.478-21.831 28.006-36.498 51.081-36.498 23.869 0 44.614 15.315 51.62 38.11.788 2.564 2.573 4.704 4.955 5.939 2.381 1.234 5.158 1.461 7.709.628 16.826-5.495 34.674 3.257 40.631 19.93 6.022 16.857-2.793 35.471-19.65 41.494-3.708 1.325-7.574 1.963-11.48 1.894-.059-.001-.117-.001-.175-.001h-138.919c-.191-.019-.383-.032-.577-.04zm53.73 20.046h35.359l-24.469 24.491c-2.858 2.861-3.712 7.161-2.164 10.897 1.548 3.735 5.194 6.171 9.238 6.171h10.532l-43.445 43.465 7.86-33.452c.699-2.974 0-6.104-1.896-8.498-1.897-2.394-4.784-3.79-7.838-3.79h-8.406z"/></g></g></svg>