<?xml version="1.0" encoding="utf-8"?><svg version="1.1" id="Layer_1" xmlns="http://www.w3.org/2000/svg" xmlns:xlink="http://www.w3.org/1999/xlink" x="0px" y="0px" viewBox="0 0 114.02 122.88" style="enable-background:new 0 0 114.02 122.88" xml:space="preserve"><g><path d="M100.52,15.02c0.47,0.29,0.56,0.99,0.2,1.57c-0.36,0.58-1.02,0.81-1.49,0.53c-0.47-0.29-0.56-0.99-0.2-1.57 C99.38,14.97,100.05,14.73,100.52,15.02L100.52,15.02z M60.09,23.22l2.08,4.53l0.2-0.38l0.15-0.3c0.02-0.03,0.03-0.06,0.05-0.09 c1.22-2.14,2.26-3.89,3.6-4.98c1.61-1.31,3.41-1.62,5.85-0.48c1.9,0.89,3.47,2.25,4.74,3.85c1.43,1.82,2.48,3.95,3.2,6.08 c0.59,1.76,0.96,3.59,1.08,5.41c0.1,1.45,0.04,2.9-0.18,4.31c0.54-0.52,1.1-1.02,1.7-1.5c4.89-3.91,11.71-6.25,17.92-4.21 c1.67,0.55,3.29,1.36,4.79,2.38c1.52,1.03,2.91,2.27,4.13,3.66c1.49,1.7,2.8,3.68,3.64,5.83c0.75,1.9,1.12,3.94,0.93,6.04 c-0.24,2.69-1.42,4.08-3.36,4.81c-1.6,0.6-3.63,0.62-6.09,0.59c-0.04,0-0.09,0-0.13,0l-0.22-0.01c-2.86-0.15-5.71-0.3-8.43-0.28 c-1,0.01-2.01,0.02-3.03,0.04c-0.01,0.2-0.03,0.4-0.05,0.6c-0.04,0.39-0.08,0.78-0.04,0.99c0.04,0.23,0.68,0.28,3.4-0.22 c0.55-0.1,1.09,0.11,1.42,0.51l0,0l2.84,3.34c0.47,0.56,0.47,1.36,0.03,1.92C92.19,75.86,83.4,85.62,74.13,94.89 c-9.74,9.74-20.05,18.98-30.71,27.65c-0.57,0.47-1.38,0.44-1.93-0.02l0,0l-3.34-2.84c-0.45-0.38-0.62-0.96-0.5-1.5 c0.49-2.66,0.43-3.29,0.21-3.33c-0.21-0.04-0.6,0-0.99,0.04c-0.55,0.06-1.11,0.11-1.72,0.03c-1.86-0.24-3.31-1.38-3.06-5.72 l-0.54,0c-2.55,0.02-3.86,0.03-4.8-0.95c-1.01-1.07-0.82-2.41-0.39-5.16c-0.42-0.03-0.81-0.06-1.16-0.08 c-2.13-0.14-3.22-0.22-4.06-1.12c-0.88-0.95-0.83-2.09-0.72-4.4c0.01-0.23,0.02-0.47,0.03-0.72c-0.48,0.02-0.92,0.05-1.31,0.08 c-2.12,0.13-3.22,0.2-4.11-0.65c-0.98-0.93-0.86-2.1-0.62-4.55l0.05-0.55c-0.45,0-0.86,0.01-1.22,0.02 c-1.8,0.03-2.77,0.05-3.66-0.62c-1.06-0.79-1.22-1.91-1.58-4.33l-0.1-0.67l-7.03-3.23c-0.76-0.35-1.09-1.24-0.75-2 c0.05-0.11,0.12-0.22,0.19-0.31l0,0c8.5-10.66,17.46-20.82,26.99-30.41c9.54-9.6,19.65-18.63,30.43-27.01 c0.66-0.51,1.61-0.39,2.12,0.27C59.96,22.94,60.04,23.08,60.09,23.22L60.09,23.22z M64.26,30.29c2.19,0.32,3.25,0.52,4.01,1.53 c0.67,0.89,0.65,1.86,0.62,3.66c-0.01,0.36-0.01,0.77-0.02,1.22l0.55-0.05c2.44-0.24,3.62-0.36,4.55,0.62 c0.85,0.89,0.78,1.99,0.65,4.11c-0.02,0.4-0.05,0.84-0.08,1.31c0.25-0.01,0.49-0.02,0.72-0.03c0.88-0.04,1.59-0.08,2.18-0.05 c0.1-0.34,0.2-0.68,0.27-1.03c0.31-1.46,0.41-2.98,0.31-4.51c-0.11-1.58-0.42-3.15-0.92-4.65c-0.62-1.84-1.5-3.65-2.7-5.17 c-0.99-1.26-2.2-2.31-3.65-2.99c-1.19-0.56-2-0.46-2.67,0.09c-0.92,0.75-1.81,2.26-2.87,4.13l-0.15,0.29 C64.79,29.26,64.53,29.78,64.26,30.29L64.26,30.29z M80.68,46.02c0.04,0.42,0.07,0.88,0.11,1.42c0.02,0.35,0.05,0.74,0.08,1.16 c2.75-0.43,4.09-0.62,5.16,0.39c0.98,0.93,0.97,2.24,0.95,4.79l0,0.54c2.69-0.15,4.15,0.35,4.93,1.19 c1.27-0.02,2.54-0.05,3.83-0.05c2.88-0.01,5.74,0.13,8.6,0.28l0.22,0.01l0.02,0c2.13,0.03,3.87,0.02,4.99-0.4 c0.81-0.3,1.3-0.95,1.42-2.26c0.14-1.59-0.16-3.17-0.74-4.66c-0.71-1.8-1.83-3.49-3.1-4.94c-1.05-1.2-2.25-2.27-3.55-3.15 c-1.26-0.85-2.62-1.53-4.05-2c-5.14-1.69-10.9,0.34-15.09,3.69C82.94,43.23,81.66,44.6,80.68,46.02L80.68,46.02z M69.95,28.51 c-0.22-0.35-0.74-0.42-1.18-0.15c-0.44,0.27-0.61,0.77-0.4,1.12c0.22,0.35,0.75,0.42,1.18,0.15 C69.99,29.36,70.17,28.86,69.95,28.51L69.95,28.51z M73.48,30.2c-0.22-0.35-0.74-0.42-1.18-0.15c-0.44,0.27-0.61,0.77-0.4,1.12 c0.22,0.35,0.75,0.42,1.18,0.15C73.52,31.05,73.7,30.55,73.48,30.2L73.48,30.2z M83.35,18.56c1.55-1.58,3.11-3.09,4.67-4.59 c1.08-1.04,2.17-2.09,3.22-3.13c1.93-1.91,3.83-4.03,5.74-6.15l0.17-0.19c0.03-0.03,0.06-0.07,0.09-0.1 c1.71-1.76,3.15-3.18,4.72-3.89c1.89-0.86,3.71-0.71,5.78,1.02c1.62,1.35,2.79,3.06,3.61,4.93c0.93,2.12,1.4,4.45,1.55,6.69 c0.12,1.85,0.01,3.71-0.33,5.51c-0.34,1.77-0.91,3.48-1.7,5.07c-1.32,2.62-3.34,4.7-5.74,6.27c-3.11,2.03-6.85,3.19-10.46,3.51 c-3.65,0.32-7.2-0.21-9.9-1.57c-1.56-0.79-2.85-1.86-3.73-3.2c-3.06-4.69-0.75-7.04,2.1-9.95L83.35,18.56L83.35,18.56z M90.12,16.14c-1.55,1.49-3.1,2.99-4.61,4.53l-0.21,0.22c-1.92,1.95-3.46,3.53-1.72,6.19c0.57,0.88,1.46,1.6,2.56,2.15 c2.19,1.1,5.17,1.53,8.28,1.25c3.15-0.28,6.4-1.28,9.07-3.02c1.97-1.29,3.63-2.98,4.69-5.09c0.67-1.33,1.14-2.77,1.43-4.28 c0.3-1.55,0.39-3.15,0.28-4.74c-0.13-1.93-0.53-3.92-1.3-5.69c-0.64-1.47-1.55-2.8-2.77-3.82c-1.01-0.84-1.82-0.95-2.6-0.59 c-1.08,0.49-2.32,1.72-3.81,3.25l-0.01,0.01L99.23,6.7c-1.91,2.12-3.82,4.24-5.85,6.27C92.28,14.05,91.2,15.09,90.12,16.14 L90.12,16.14z M94.68,44.07c0.17,0.11,0.21,0.37,0.08,0.58c-0.13,0.21-0.38,0.3-0.55,0.19c-0.17-0.11-0.21-0.37-0.08-0.58 C94.26,44.05,94.51,43.97,94.68,44.07L94.68,44.07z M93.25,48.45c0.34,0.21,0.41,0.72,0.15,1.14c-0.26,0.42-0.74,0.59-1.08,0.38 c-0.34-0.21-0.41-0.72-0.15-1.14C92.43,48.41,92.91,48.24,93.25,48.45L93.25,48.45z M100.97,50.54c0.34,0.21,0.41,0.72,0.15,1.14 c-0.26,0.42-0.74,0.59-1.08,0.38c-0.34-0.21-0.41-0.72-0.15-1.14C100.15,50.51,100.63,50.34,100.97,50.54L100.97,50.54z M104.51,47.29c0.35,0.22,0.42,0.74,0.15,1.18c-0.27,0.44-0.77,0.61-1.12,0.4c-0.35-0.22-0.42-0.74-0.15-1.18 C103.66,47.25,104.16,47.07,104.51,47.29L104.51,47.29z M102.82,43.76c0.35,0.22,0.42,0.74,0.15,1.18 c-0.27,0.43-0.77,0.61-1.12,0.39c-0.35-0.22-0.42-0.74-0.15-1.18C101.97,43.72,102.47,43.54,102.82,43.76L102.82,43.76z M98.55,46.41c0.47,0.29,0.56,0.99,0.2,1.57c-0.36,0.58-1.02,0.81-1.49,0.53c-0.47-0.29-0.56-0.99-0.2-1.57 C97.42,46.35,98.09,46.12,98.55,46.41L98.55,46.41z M96.65,12.68c0.17,0.11,0.21,0.37,0.07,0.58c-0.13,0.21-0.38,0.3-0.55,0.2 c-0.17-0.11-0.21-0.37-0.08-0.58C96.22,12.66,96.47,12.58,96.65,12.68L96.65,12.68z M95.21,17.06c0.34,0.21,0.41,0.72,0.15,1.14 c-0.26,0.42-0.74,0.59-1.08,0.38c-0.34-0.21-0.4-0.72-0.15-1.14C94.39,17.02,94.87,16.85,95.21,17.06L95.21,17.06z M102.93,19.16 c0.34,0.21,0.4,0.72,0.15,1.14c-0.26,0.42-0.74,0.59-1.08,0.38c-0.34-0.21-0.41-0.72-0.15-1.14 C102.11,19.12,102.59,18.95,102.93,19.16L102.93,19.16z M106.47,15.9c0.35,0.22,0.42,0.74,0.15,1.18c-0.27,0.44-0.77,0.61-1.12,0.4 c-0.35-0.22-0.42-0.75-0.15-1.18C105.62,15.86,106.12,15.68,106.47,15.9L106.47,15.9z M104.79,12.37c0.35,0.22,0.42,0.74,0.15,1.18 c-0.27,0.44-0.77,0.61-1.12,0.4c-0.35-0.22-0.42-0.74-0.15-1.18C103.93,12.33,104.43,12.16,104.79,12.37L104.79,12.37z M11.2,71.53 c7.59,6.31,14.48,12.55,21.08,19.12c6.61,6.58,12.91,13.47,19.31,21.09c6.99-6.07,13.82-12.41,20.41-18.99 c6.11-6.11,12-12.42,17.62-18.92c-7.6-6.54-14.6-13.05-21.24-19.74C61.73,47.4,55.46,40.54,49.31,33.3 c-6.9,5.86-13.51,12-19.85,18.38C23.13,58.05,17.06,64.67,11.2,71.53L11.2,71.53z M49.3,113.71c-6.37-7.57-12.62-14.41-19.15-20.92 C23.63,86.3,16.8,80.12,9.24,73.84c-1.8,2.14-3.58,4.31-5.35,6.5l6.01,2.77v0c0.45,0.2,0.78,0.62,0.86,1.14 c0.15,0.97,0.19,1.25,0.23,1.49c0.23,1.58,0.34,2.31,0.39,2.35c0.06,0.05,0.67,0.04,1.81,0.02c0.76-0.01,1.69-0.03,2.84,0 c0.06,0,0.13,0,0.2,0c0.83,0.07,1.46,0.79,1.39,1.63c-0.06,0.69-0.14,1.52-0.21,2.22c-0.14,1.45-0.39,1.98-0.3,2.06 c0.07,0.06,0.59-0.1,1.85-0.18c0.78-0.05,1.74-0.11,3.01-0.14h0h0c0.02,0,0.05,0,0.07,0c0.83,0.02,1.49,0.71,1.47,1.54 c-0.03,1-0.06,1.75-0.09,2.4c-0.07,1.47-0.11,2.18-0.09,2.2c0.02,0.03,0.71,0.07,2.05,0.16c0.72,0.05,1.6,0.11,2.75,0.22 c0.05,0,0.11,0.01,0.16,0.01c0.83,0.12,1.4,0.89,1.28,1.72l-0.23,1.51c-0.28,1.82-0.42,2.71-0.42,2.71 c0.03,0.04,0.91,0.03,2.59,0.02c0.63,0,1.35-0.01,2.18,0c0.08,0,0.16,0,0.23,0.01c0.83,0.11,1.41,0.87,1.3,1.69 c-0.43,3.27-0.15,3.98,0.3,4.04c0.26,0.03,0.65-0.01,1.04-0.05c0.6-0.06,1.2-0.12,1.83,0c1.81,0.33,3.01,1.61,2.35,6.04l1.73,1.47 C44.78,117.53,47.05,115.64,49.3,113.71L49.3,113.71z M59.03,63.91c4.79,4.79,4.79,12.57,0,17.36c-4.79,4.79-12.57,4.79-17.36,0 c-4.79-4.79-4.79-12.57,0-17.36C46.47,59.11,54.24,59.11,59.03,63.91L59.03,63.91z M51.62,31.36c6.1,7.19,12.32,13.98,18.89,20.6 c6.58,6.63,13.53,13.09,21.06,19.57c1.9-2.24,3.77-4.51,5.6-6.79L95.7,63c-4.44,0.66-5.71-0.54-6.04-2.35 c-0.12-0.63-0.06-1.23,0-1.83c0.04-0.39,0.08-0.78,0.05-1.04c-0.06-0.44-0.77-0.72-4.04-0.3l0,0c-0.06,0.01-0.12,0.01-0.18,0.01 c-0.83,0.01-1.51-0.66-1.52-1.5c-0.01-0.85,0-1.58,0-2.23c0.01-1.69,0.02-2.56-0.02-2.59c0,0-0.89,0.13-2.71,0.42l-1.51,0.23l0,0 c-0.02,0-0.05,0.01-0.07,0.01c-0.83,0.08-1.57-0.52-1.65-1.35c-0.12-1.2-0.18-2.1-0.23-2.84c-0.09-1.34-0.14-2.02-0.16-2.05 c-0.02-0.02-0.74,0.02-2.2,0.09c-0.64,0.03-1.39,0.07-2.39,0.09l-0.01,0h0c-0.02,0-0.05,0-0.07,0c-0.83-0.02-1.49-0.71-1.47-1.54 c0.03-1.28,0.09-2.24,0.14-3.02c0.08-1.26,0.24-1.79,0.18-1.85c-0.09-0.09-0.61,0.16-2.06,0.3c-0.71,0.07-1.53,0.15-2.22,0.21l0,0 c-0.03,0-0.05,0-0.08,0c-0.83,0.02-1.52-0.64-1.54-1.47c-0.03-1.21-0.01-2.18,0-2.96c0.02-1.13,0.03-1.74-0.02-1.81 c-0.04-0.05-0.77-0.16-2.35-0.39c-0.23-0.03-0.51-0.08-1.45-0.22c-0.5-0.07-0.95-0.38-1.18-0.87l-2.77-6.03 C55.91,27.84,53.75,29.58,51.62,31.36L51.62,31.36z"/></g></svg>