<svg id="Layer_1" data-name="Layer 1" xmlns="http://www.w3.org/2000/svg" viewBox="0 0 122.88 120.13"><defs><style>.cls-1{fill:#ff5517;}.cls-2{fill:#ff8022;}.cls-2,.cls-3,.cls-4,.cls-5{fill-rule:evenodd;}.cls-3{fill:#fff;}.cls-4{fill:#f37e98;}.cls-5{fill:#f15b6c;}</style></defs><title>seafood</title><path class="cls-1" d="M49,34.54c-1.15-.27-2.26-.56-3.34-.87a46.73,46.73,0,0,1-6.52-2.37A26.31,26.31,0,0,1,30,24.93,7.62,7.62,0,0,1,28,20.68a5.4,5.4,0,0,1,1.76-4.3l.48-.45a10,10,0,0,1-1-3.84A10.53,10.53,0,0,1,30,7.46,11.1,11.1,0,0,1,36,1.77,22.85,22.85,0,0,1,42.71,0V1.58A21.34,21.34,0,0,0,36.6,3.21a9.51,9.51,0,0,0-5.14,4.86A9,9,0,0,0,30.82,12a8.11,8.11,0,0,0,.74,3,22.77,22.77,0,0,1,5.7-2.45,27.44,27.44,0,0,1,5.45-1v1.58a26.24,26.24,0,0,0-5,.91,21.09,21.09,0,0,0-5.41,2.34,19.4,19.4,0,0,0,3.08,3.75,41.81,41.81,0,0,0,7.06,5.34c1.78,1.11,3.71,2.2,5.76,3.27h0l0,0v0h0v0l0,0v0h0v0l0,0v0h0v0l0,0v0h0l0,0v0h0v0l0,0h0v.07h0v0l0,0h0v.08h0v.06h0v.07h0v.08h0v.07h0v.07h0v.05h0v.1h0V30h0v.07h0v.07c-2.13-1.11-4.13-2.23-6-3.38a44.28,44.28,0,0,1-7.33-5.56,21.4,21.4,0,0,1-3.23-3.9l-.15.15a3.92,3.92,0,0,0-1.31,3.08,6.23,6.23,0,0,0,1.59,3.36,25.09,25.09,0,0,0,8.56,5.95A45.79,45.79,0,0,0,46,32.17c.64.18,1.3.36,2,.53h0v0l0,0v.08h0V33l0,0v0h0v0l0,0v.06l0,0h0v0l0,0v0l0,.06h0l0,0,0,.06,0,0v0h0l0,0v0l0,0v.06h0v.05l0,0v0l0,0h0v0l0,0,0,0,0,0v0h0l0,0v0l0,0v0l0,0h0l0,0v0l0,0v0l0,0h0l0,0v0l0,0v0l0,0,0,0v0l0,0,0,0v0l0,0Zm54.94,31.29c-4.3,1.78-6.46,6.65-6.94,11.46h.11v0h.07l0,0h0l0,0h0l0,0h0l0,0h.12l0,0h0l0,0h0l0,0h0v0h0l0,0h.1l0,0h0v0h0l0,0h0l0,0H98c1.33-2.78,3-6.16,5.25-7.46h0v0h0v-.09h0v0h0v0h0v0h0v0h0V68.6h0v0h0v0h0v0h0V68.4h0v0h0v0h0v0h0v0h0v0h0v0h0v0h0v0h0v-.13h0v0h0v0h0v0h0v0h0v0h0v0h0v0h0v0h0v0h0v0h0v0h0v-.09h0v0h0v0h0v0h0v0h0v0h0v-.09h0v0h0v0h0v0h0v0h0V66.7h0v0h0V66.6h0v0h0v0h0v0h0v0h0v0h0v0h0v0h0v0h0v0h0v0h0v0h0v0h0v0Zm-20.7-22L80,48.53c-1.9,2.79-4.94,2.2-7.76,1.42L55.66,45.39c-2.92,3.36-4.47,7.4-6.07,11.93a22.05,22.05,0,0,1,3.69-12.54,2.8,2.8,0,0,1,2.89-1.47L76.1,47.94l3.31-4.3h3.78ZM95,48l.07-1.28h0l-.07,0h0l0,0h0l0,0,0,0h-.15l-.09,0,0,0h0l-.06,0h0l0,0h0l-.08,0h0l0,0h0l0,0h0l0,0h0l0,0h0l-.1,0h0l0,0h-.14l-.06,0h0l0,0h0l0,0h0l0,0h0l0,0h0l0,0h0l0,0h0l0,0h-.09l0,0h0l-.07,0h-.22l0,0h-.16l0,0h0l0,0h-.92c-4.92,1.88-7.11,7.76-7.25,13.12,1.79-3.3,4.24-10.28,8.27-10.38Zm5.13,5.84.12-2.08H100a3.24,3.24,0,0,1-.41-.78h-.19c-6.68.63-9.57,7.51-9.73,13.69C91.5,60.91,94,53.94,98,53.83Zm3.16,7.41.11-2v-.06h0v-.09h0V59h0v-.09h0v-.08h0v-.08h0v-.08h0v-.08h0v-.17h0v-.07h0v0l0-.06v-.06h0V58.1h0V58h0v-.07h0v0c-7,.36-10,7.41-10.19,13.73,1.79-3.3,4.24-10.27,8.27-10.38Z"/><path class="cls-2" d="M67.27,39.63c-8.42-1.06-14.5-3.58-16.27-8.84A68.22,68.22,0,0,0,68.37,27c8.08-3.1,16.87-5.64,25.89-4.26a35.82,35.82,0,0,1-1.78,9.83,34.46,34.46,0,0,1-3.71,8.3c-6.92-1.22-14.61-.41-21.5-1.28ZM96.34,23.17a33.64,33.64,0,0,1,12.55,5.76,31.8,31.8,0,0,1,4.45,3.9,36.65,36.65,0,0,1-4.92,8.2,32.57,32.57,0,0,1-6.79,6.78,18.45,18.45,0,0,0-4.68-4,22.19,22.19,0,0,0-6-2.41,38,38,0,0,0,3.53-8.14,38.45,38.45,0,0,0,1.87-10.06Zm18.53,11.39a35.47,35.47,0,0,1,7.73,17.76,39.63,39.63,0,0,1-6.44,5,32.2,32.2,0,0,1-8.88,4.07,26.21,26.21,0,0,0-4.39-11.87,35.14,35.14,0,0,0,7.18-7.17,41.34,41.34,0,0,0,4.8-7.74Zm8,20.37a28.91,28.91,0,0,1-4.52,17.44,30.4,30.4,0,0,1-2.14,2.86c-.49-.1-1-.21-1.45-.33A33.24,33.24,0,0,1,106,71.67c.17-.41.32-.83.46-1.26a20.84,20.84,0,0,0,.93-7,33.24,33.24,0,0,0,9.83-4.4,44.93,44.93,0,0,0,5.58-4.11ZM114.55,77q-6,6.09-16.25,10a14.67,14.67,0,0,1-9.86,3.15c-7.34-.75-7.34-10.51-.34-10.71,2.12-.06,5,.55,8.8,2a21.41,21.41,0,0,0,8.23-7.89,36.11,36.11,0,0,0,9.12,3.38l.3.07Z"/><path class="cls-3" d="M71.64,28.86a2.95,2.95,0,1,1-3,2.95,2.95,2.95,0,0,1,3-2.95Z"/><path class="cls-4" d="M67.31,112.35l7.77,4.34c2.81-6.9-.26-17.4-5-25.35a50.53,50.53,0,0,0-14.27,11.35,35.36,35.36,0,0,0-7.68,13.63c9.19,3.66,19,4.91,24.46,2.73l-5.23-6.7Zm1.6-22.77a30.67,30.67,0,0,0-6-6.86v0a77.7,77.7,0,0,0-13-7.44h0c-4.78-1.44-9.66-2.62-14.58-3.67-5.05-.45-7.75-3.52-8.52-8.76l-.39-5.91c-.2-3.12,0-14.48-5.65-11-3.49,2.89-5.77,8.3-7.93,14A72.93,72.93,0,0,0,5,64c-7.43,4.38-6.37,7.77,1.69,8.12l11.09.47c3.92,0,6.12,1.64,7.07,4.27,2.9,8,1.81,15.58,8.2,25.67a84.55,84.55,0,0,0,8.52,10.77c1.48.82,3,1.57,4.56,2.26a37.61,37.61,0,0,1,8-14.18A52.35,52.35,0,0,1,68.91,89.58Zm2.47,14.51a3.27,3.27,0,1,0-3.27,3.28,3.28,3.28,0,0,0,3.27-3.28Z"/><path class="cls-5" d="M33.08,102.31a86.61,86.61,0,0,0,8.79,11.12,40.47,40.47,0,0,1-15.14-1.1c-3.24-1.75-3.49-3.5-1.71-5.25a48.26,48.26,0,0,1,8.06-4.77ZM49.81,75.25A79.9,79.9,0,0,1,63,82.8,36.51,36.51,0,0,0,60.9,70.67c-3-9.51-8.76.65-11.09,4.58Z"/></svg>